<svg width="20" height="140" viewBox="0 0 20 140" fill="none" xmlns="http://www.w3.org/2000/svg">
<g clip-path="url(#clip0_2_471)">
<path d="M9.99998 14.1666C12.3012 14.1666 14.1666 12.3012 14.1666 9.99998C14.1666 7.69879 12.3012 5.83331 9.99998 5.83331C7.69879 5.83331 5.83331 7.69879 5.83331 9.99998C5.83331 12.3012 7.69879 14.1666 9.99998 14.1666Z" stroke="black" stroke-width="2" stroke-linecap="round" stroke-linejoin="round"/>
<path d="M10 0.833313V2.49998" stroke="black" stroke-width="2" stroke-linecap="round" stroke-linejoin="round"/>
<path d="M10 17.5V19.1667" stroke="black" stroke-width="2" stroke-linecap="round" stroke-linejoin="round"/>
<path d="M3.51666 3.51666L4.7 4.7" stroke="black" stroke-width="2" stroke-linecap="round" stroke-linejoin="round"/>
<path d="M15.3 15.3L16.4833 16.4833" stroke="black" stroke-width="2" stroke-linecap="round" stroke-linejoin="round"/>
<path d="M0.833313 10H2.49998" stroke="black" stroke-width="2" stroke-linecap="round" stroke-linejoin="round"/>
<path d="M17.5 10H19.1667" stroke="black" stroke-width="2" stroke-linecap="round" stroke-linejoin="round"/>
<path d="M3.51666 16.4833L4.7 15.3" stroke="black" stroke-width="2" stroke-linecap="round" stroke-linejoin="round"/>
<path d="M15.3 4.7L16.4833 3.51666" stroke="black" stroke-width="2" stroke-linecap="round" stroke-linejoin="round"/>
</g>
<g clip-path="url(#clip1_2_471)">
<path d="M6.66669 39.8333V41.5" stroke="black" stroke-width="2" stroke-linecap="round" stroke-linejoin="round"/>
<path d="M6.66669 34.8333V36.5" stroke="black" stroke-width="2" stroke-linecap="round" stroke-linejoin="round"/>
<path d="M13.3333 39.8333V41.5" stroke="black" stroke-width="2" stroke-linecap="round" stroke-linejoin="round"/>
<path d="M13.3333 34.8333V36.5" stroke="black" stroke-width="2" stroke-linecap="round" stroke-linejoin="round"/>
<path d="M10 41.5V43.1667" stroke="black" stroke-width="2" stroke-linecap="round" stroke-linejoin="round"/>
<path d="M10 36.5V38.1667" stroke="black" stroke-width="2" stroke-linecap="round" stroke-linejoin="round"/>
<path d="M16.6667 37.8167C17.5427 37.433 18.2601 36.7596 18.6984 35.9096C19.1367 35.0596 19.2693 34.0847 19.0738 33.1485C18.8784 32.2123 18.3668 31.3718 17.625 30.7682C16.8833 30.1645 15.9564 29.8344 15 29.8333H13.95C13.6859 28.8104 13.1824 27.8649 12.4811 27.0748C11.7798 26.2847 10.9008 25.6725 9.91648 25.2888C8.93217 24.9051 7.87076 24.7608 6.81974 24.8679C5.76872 24.9749 4.75818 25.3301 3.87142 25.9044C2.98466 26.4786 2.24706 27.2554 1.71943 28.1706C1.1918 29.0859 0.889234 30.1135 0.836684 31.1686C0.784133 32.2238 0.983098 33.2763 1.41718 34.2394C1.85126 35.2026 2.50802 36.0488 3.33334 36.7083" stroke="black" stroke-width="2" stroke-linecap="round" stroke-linejoin="round"/>
</g>
<g clip-path="url(#clip2_2_471)">
<path d="M15.8333 62.0834C16.8459 61.8777 17.746 61.3032 18.3589 60.4713C18.9717 59.6393 19.2536 58.6093 19.1497 57.5813C19.0459 56.5532 18.5638 55.6004 17.7969 54.9078C17.0301 54.2153 16.0333 53.8323 15 53.8334H13.95C13.6739 52.7645 13.1367 51.7809 12.3866 50.9708C11.6365 50.1608 10.6969 49.5498 9.65234 49.1926C8.60775 48.8354 7.4908 48.7431 6.40176 48.9242C5.31273 49.1053 4.28571 49.5539 3.41291 50.2299C2.5401 50.906 1.84884 51.7881 1.40118 52.7973C0.95352 53.8064 0.763477 54.911 0.848113 56.0117C0.932749 57.1124 1.28941 58.1749 1.88609 59.1037C2.48276 60.0326 3.30076 60.7987 4.26665 61.3334" stroke="black" stroke-width="2" stroke-linecap="round" stroke-linejoin="round"/>
<path d="M10.8333 57.1667L7.5 62.1667H12.5L9.16667 67.1667" stroke="black" stroke-width="2" stroke-linecap="round" stroke-linejoin="round"/>
</g>
<g clip-path="url(#clip3_2_471)">
<path d="M13.3333 82.8333V89.5" stroke="black" stroke-width="2" stroke-linecap="round" stroke-linejoin="round"/>
<path d="M6.66669 82.8333V89.5" stroke="black" stroke-width="2" stroke-linecap="round" stroke-linejoin="round"/>
<path d="M10 84.5V91.1667" stroke="black" stroke-width="2" stroke-linecap="round" stroke-linejoin="round"/>
<path d="M16.6667 85.8167C17.5427 85.433 18.2601 84.7596 18.6984 83.9096C19.1367 83.0596 19.2693 82.0847 19.0738 81.1485C18.8784 80.2123 18.3668 79.3718 17.625 78.7682C16.8833 78.1645 15.9564 77.8344 15 77.8333H13.95C13.6859 76.8104 13.1824 75.8649 12.4811 75.0748C11.7798 74.2847 10.9008 73.6725 9.91648 73.2888C8.93217 72.9051 7.87076 72.7608 6.81974 72.8679C5.76872 72.9749 4.75818 73.3301 3.87142 73.9044C2.98466 74.4786 2.24706 75.2554 1.71943 76.1706C1.1918 77.0859 0.889234 78.1135 0.836684 79.1686C0.784133 80.2238 0.983098 81.2763 1.41718 82.2394C1.85126 83.2026 2.50802 84.0488 3.33334 84.7083" stroke="black" stroke-width="2" stroke-linecap="round" stroke-linejoin="round"/>
</g>
<g clip-path="url(#clip4_2_471)">
<path d="M16.6667 110.65C17.5427 110.266 18.2601 109.593 18.6984 108.743C19.1367 107.893 19.2693 106.918 19.0738 105.982C18.8784 105.046 18.3668 104.205 17.625 103.602C16.8833 102.998 15.9564 102.668 15 102.667H13.95C13.6859 101.644 13.1824 100.698 12.4811 99.9082C11.7798 99.1181 10.9008 98.5059 9.91648 98.1222C8.93217 97.7385 7.87076 97.5942 6.81974 97.7012C5.76872 97.8083 4.75818 98.1635 3.87142 98.7378C2.98466 99.312 2.24706 100.089 1.71943 101.004C1.1918 101.919 0.889234 102.947 0.836684 104.002C0.784133 105.057 0.983098 106.11 1.41718 107.073C1.85126 108.036 2.50802 108.882 3.33334 109.542" stroke="black" stroke-width="2" stroke-linecap="round" stroke-linejoin="round"/>
<path d="M6.66669 109.333H6.67502" stroke="black" stroke-width="2" stroke-linecap="round" stroke-linejoin="round"/>
<path d="M6.66669 112.667H6.67502" stroke="black" stroke-width="2" stroke-linecap="round" stroke-linejoin="round"/>
<path d="M10 111H10.0083" stroke="black" stroke-width="2" stroke-linecap="round" stroke-linejoin="round"/>
<path d="M10 114.333H10.0083" stroke="black" stroke-width="2" stroke-linecap="round" stroke-linejoin="round"/>
<path d="M13.3333 109.333H13.3416" stroke="black" stroke-width="2" stroke-linecap="round" stroke-linejoin="round"/>
<path d="M13.3333 112.667H13.3416" stroke="black" stroke-width="2" stroke-linecap="round" stroke-linejoin="round"/>
</g>
<g clip-path="url(#clip5_2_471)">
<path d="M15 128.333H13.95C13.6382 127.126 12.994 126.03 12.0905 125.17C11.1871 124.311 10.0606 123.722 8.83911 123.47C7.61762 123.219 6.35009 123.315 5.18056 123.748C4.01102 124.181 2.98638 124.933 2.22305 125.919C1.45973 126.906 0.988336 128.086 0.862433 129.327C0.736531 130.568 0.96117 131.819 1.51082 132.938C2.06048 134.058 2.91311 135.001 3.97183 135.66C5.03055 136.319 6.25291 136.668 7.50001 136.667H15C16.1051 136.667 17.1649 136.228 17.9463 135.446C18.7277 134.665 19.1667 133.605 19.1667 132.5C19.1667 131.395 18.7277 130.335 17.9463 129.554C17.1649 128.772 16.1051 128.333 15 128.333Z" stroke="black" stroke-width="2" stroke-linecap="round" stroke-linejoin="round"/>
</g>
<defs>
<clipPath id="clip0_2_471">
<rect width="20" height="20" fill="white"/>
</clipPath>
<clipPath id="clip1_2_471">
<rect width="20" height="20" fill="white" transform="translate(0 24)"/>
</clipPath>
<clipPath id="clip2_2_471">
<rect width="20" height="20" fill="white" transform="translate(0 48)"/>
</clipPath>
<clipPath id="clip3_2_471">
<rect width="20" height="20" fill="white" transform="translate(0 72)"/>
</clipPath>
<clipPath id="clip4_2_471">
<rect width="20" height="20" fill="white" transform="translate(0 96)"/>
</clipPath>
<clipPath id="clip5_2_471">
<rect width="20" height="20" fill="white" transform="translate(0 120)"/>
</clipPath>
</defs>
</svg>
